<svg width="32" height="32" viewBox="0 0 32 32" fill="none" xmlns="http://www.w3.org/2000/svg">
<path d="M26.6666 14.6667C26.3405 12.3203 25.252 10.1462 23.5688 8.47934C21.8855 6.81246 19.7009 5.74524 17.3515 5.44209C15.002 5.13893 12.6181 5.61666 10.5669 6.80168C8.51563 7.98669 6.91092 9.81326 5.99992 12M5.33325 6.66668V12H10.6666M5.33325 17.3333C5.65933 19.6797 6.74783 21.8538 8.43107 23.5207C10.1143 25.1876 12.2989 26.2548 14.6484 26.5579C16.9978 26.8611 19.3818 26.3834 21.433 25.1984C23.4842 24.0133 25.0889 22.1868 25.9999 20M26.6666 25.3333V20H21.3333" stroke="#1647C9" stroke-width="2.00649" stroke-linecap="round" stroke-linejoin="round"/>
</svg>
