<svg width="48" height="48" viewBox="0 0 48 48" fill="none" xmlns="http://www.w3.org/2000/svg">
<rect width="48" height="48" rx="4" fill="#E3EDFF"/>
<g clip-path="url(#clip0_131_1335)">
<path d="M20.7637 27.2356C21.2909 27.7737 21.9202 28.2012 22.6147 28.493C23.3092 28.7848 24.0549 28.9351 24.8083 28.9351C25.5616 28.9351 26.3073 28.7848 27.0018 28.493C27.6963 28.2012 28.3256 27.7737 28.8528 27.2356L35.324 20.7644C36.3967 19.6917 36.9993 18.2368 36.9993 16.7198C36.9993 15.2028 36.3967 13.748 35.324 12.6753C34.2514 11.6026 32.7965 11 31.2795 11C29.7625 11 28.3077 11.6026 27.235 12.6753L26.4261 13.4842" stroke="#1647C9" stroke-width="1.74724" stroke-linecap="round" stroke-linejoin="round"/>
<path d="M27.2356 20.7643C26.7084 20.2263 26.0791 19.7988 25.3846 19.507C24.6901 19.2151 23.9444 19.0648 23.1911 19.0648C22.4378 19.0648 21.692 19.2151 20.9975 19.507C20.303 19.7988 19.6738 20.2263 19.1465 20.7643L12.6753 27.2356C11.6026 28.3083 11 29.7631 11 31.2801C11 32.7971 11.6026 34.252 12.6753 35.3247C13.748 36.3973 15.2028 36.9999 16.7198 36.9999C18.2368 36.9999 19.6917 36.3973 20.7644 35.3247L21.5733 34.5157" stroke="#1647C9" stroke-width="1.74724" stroke-linecap="round" stroke-linejoin="round"/>
</g>
<defs>
<clipPath id="clip0_131_1335">
<rect width="40" height="40" fill="white" transform="translate(4 4)"/>
</clipPath>
</defs>
</svg>
