<svg width="36" height="36" viewBox="0 0 36 36" fill="none" xmlns="http://www.w3.org/2000/svg">
<g clip-path="url(#clip0_681_821)">
<path d="M4.5 31.5L6.975 25.8C5.08149 23.112 4.234 19.8255 4.59157 16.5571C4.94913 13.2887 6.48718 10.2632 8.91706 8.04823C11.3469 5.83331 14.5016 4.58127 17.7891 4.5271C21.0765 4.47293 24.2707 5.62035 26.7723 7.75401C29.2738 9.88768 30.9107 12.8609 31.3758 16.1158C31.8408 19.3706 31.1021 22.6833 29.2982 25.4321C27.4942 28.181 24.7492 30.177 21.5781 31.0456C18.407 31.9143 15.0279 31.5958 12.075 30.15L4.5 31.5Z" stroke="#E6AA11" stroke-width="2.5" stroke-linecap="round" stroke-linejoin="round"/>
<path d="M13.5 15C13.5 15.1989 13.579 15.3897 13.7197 15.5303C13.8603 15.671 14.0511 15.75 14.25 15.75C14.4489 15.75 14.6397 15.671 14.7803 15.5303C14.921 15.3897 15 15.1989 15 15V13.5C15 13.3011 14.921 13.1103 14.7803 12.9697C14.6397 12.829 14.4489 12.75 14.25 12.75C14.0511 12.75 13.8603 12.829 13.7197 12.9697C13.579 13.1103 13.5 13.3011 13.5 13.5V15ZM13.5 15C13.5 16.9891 14.2902 18.8968 15.6967 20.3033C17.1032 21.7098 19.0109 22.5 21 22.5M21 22.5H22.5C22.6989 22.5 22.8897 22.421 23.0303 22.2803C23.171 22.1397 23.25 21.9489 23.25 21.75C23.25 21.5511 23.171 21.3603 23.0303 21.2197C22.8897 21.079 22.6989 21 22.5 21H21C20.8011 21 20.6103 21.079 20.4697 21.2197C20.329 21.3603 20.25 21.5511 20.25 21.75C20.25 21.9489 20.329 22.1397 20.4697 22.2803C20.6103 22.421 20.8011 22.5 21 22.5Z" stroke="#E6AA11" stroke-width="2.5" stroke-linecap="round" stroke-linejoin="round"/>
</g>
<defs>
<clipPath id="clip0_681_821">
<rect width="36" height="36" fill="white"/>
</clipPath>
</defs>
</svg>
