<svg width="32" height="32" viewBox="0 0 32 32" fill="none" xmlns="http://www.w3.org/2000/svg">
<path d="M13.3335 18.6667C13.768 19.1101 14.2866 19.4624 14.859 19.7029C15.4314 19.9435 16.046 20.0673 16.6668 20.0673C17.2877 20.0673 17.9023 19.9435 18.4747 19.7029C19.047 19.4624 19.5657 19.1101 20.0002 18.6667L25.3335 13.3333C26.2176 12.4493 26.7142 11.2502 26.7142 9.99999C26.7142 8.74975 26.2176 7.55072 25.3335 6.66666C24.4495 5.78261 23.2504 5.28595 22.0002 5.28595C20.7499 5.28595 19.5509 5.78261 18.6668 6.66666L18.0002 7.33333M18.6668 13.3333C18.2323 12.8899 17.7137 12.5376 17.1413 12.297C16.569 12.0565 15.9544 11.9326 15.3335 11.9326C14.7127 11.9326 14.0981 12.0565 13.5257 12.297C12.9533 12.5376 12.4347 12.8899 12.0002 13.3333L6.66684 18.6667C5.78279 19.5507 5.28613 20.7498 5.28613 22C5.28613 23.2502 5.78279 24.4493 6.66684 25.3333C7.5509 26.2174 8.74994 26.714 10.0002 26.714C11.2504 26.714 12.4495 26.2174 13.3335 25.3333L14.0002 24.6667" stroke="#1647C9" stroke-width="2.00649" stroke-linecap="round" stroke-linejoin="round"/>
</svg>
