<svg width="32" height="32" viewBox="0 0 32 32" fill="none" xmlns="http://www.w3.org/2000/svg">
<path d="M10.6667 14.6667V9.33333C10.6667 7.91885 11.2287 6.56229 12.2288 5.5621C13.229 4.5619 14.5856 4 16.0001 4C17.4146 4 18.7711 4.5619 19.7713 5.5621C20.7715 6.56229 21.3334 7.91885 21.3334 9.33333V14.6667M9.33341 14.6667H22.6667C24.1395 14.6667 25.3334 15.8606 25.3334 17.3333V25.3333C25.3334 26.8061 24.1395 28 22.6667 28H9.33341C7.86066 28 6.66675 26.8061 6.66675 25.3333V17.3333C6.66675 15.8606 7.86066 14.6667 9.33341 14.6667ZM17.3334 21.3333C17.3334 22.0697 16.7365 22.6667 16.0001 22.6667C15.2637 22.6667 14.6667 22.0697 14.6667 21.3333C14.6667 20.597 15.2637 20 16.0001 20C16.7365 20 17.3334 20.597 17.3334 21.3333Z" stroke="#1647C9" stroke-width="2.00649" stroke-linecap="round" stroke-linejoin="round"/>
</svg>
