<svg width="140" height="140" viewBox="0 0 140 140" fill="none" xmlns="http://www.w3.org/2000/svg">
<g id="selo-rotativo">
<circle id="Ellipse 15" cx="70" cy="70" r="70" fill="white"/>
<g id="Group 5">
<g id="Group 4">
<path id="Ellipse 5" d="M86.3404 50.6915C86.7225 50.3094 86.7241 49.688 86.3234 49.3255C82.7349 46.0788 78.0592 44.2689 73.1968 44.2689C68.0075 44.2689 63.0308 46.3304 59.3614 49.9997C55.692 53.6691 53.6306 58.6458 53.6306 63.8351C53.6306 68.6975 55.4405 73.3732 58.6872 76.9617C59.0497 77.3624 59.6711 77.3608 60.0532 76.9787L73.1968 63.8351L86.3404 50.6915Z" fill="#1647C9"/>
<path id="Ellipse 6" d="M53.5308 90.0229C53.1488 90.405 53.1472 91.0264 53.5479 91.3889C57.1363 94.6356 61.8121 96.4455 66.6745 96.4455C71.8637 96.4455 76.8405 94.3841 80.5099 90.7147C84.1792 87.0453 86.2407 82.0686 86.2407 76.8793C86.2407 72.0169 84.4308 67.3412 81.1841 63.7527C80.8216 63.352 80.2001 63.3536 79.8181 63.7357L66.6745 76.8793L53.5308 90.0229Z" fill="#4276FF"/>
</g>
</g>
<g id="letras">
<path id="P" d="M65.0429 121.706C65.1308 121.718 65.1954 121.752 65.2367 121.806C65.2769 121.869 65.2914 121.94 65.2802 122.02L64.1862 129.852C64.174 129.94 64.1405 130.005 64.0858 130.046C64.03 130.095 63.9581 130.114 63.8702 130.101L60.8238 129.676C60.2321 129.593 59.7338 129.426 59.3289 129.174C58.9159 128.92 58.6163 128.585 58.43 128.168C58.2426 127.758 58.1886 127.27 58.2679 126.702C58.3472 126.134 58.533 125.679 58.8254 125.337C59.1177 124.995 59.4972 124.759 59.9638 124.628C60.4223 124.496 60.9475 124.472 61.5392 124.555L63.662 124.851L64.0808 121.853C64.092 121.773 64.1295 121.709 64.1933 121.661C64.2479 121.619 64.3193 121.605 64.4072 121.617L65.0429 121.706ZM63.5333 125.86L61.4584 125.57C60.8667 125.488 60.4045 125.558 60.0718 125.78C59.7391 126.003 59.5376 126.366 59.4672 126.87C59.398 127.365 59.4883 127.769 59.7382 128.081C59.9881 128.393 60.4168 128.592 61.0245 128.677L63.0994 128.967L63.5333 125.86Z" fill="#5A5B5E"/>
<path id="e" d="M53.5271 119.074C54.3178 119.332 54.8685 119.778 55.1794 120.414C55.4877 121.058 55.5274 121.81 55.2986 122.669C55.2738 122.772 55.2364 122.899 55.1864 123.053C55.1339 123.214 55.0876 123.343 55.0474 123.441C54.8393 123.976 54.5577 124.411 54.2026 124.745C53.845 125.087 53.4381 125.307 52.9817 125.405C52.5178 125.5 52.0248 125.462 51.5027 125.292C50.9193 125.102 50.4718 124.821 50.1603 124.448C49.841 124.072 49.6515 123.624 49.5917 123.104C49.5319 122.583 49.6007 122.02 49.7981 121.413L49.8618 121.218C49.8893 121.133 49.9374 121.077 50.0062 121.048C50.0672 121.017 50.1361 121.014 50.2129 121.039L54.1972 122.336C54.1997 122.328 54.2047 122.313 54.2122 122.29C54.2197 122.267 54.2259 122.248 54.2309 122.232C54.318 121.913 54.3451 121.595 54.3123 121.278C54.2769 120.97 54.1716 120.693 53.9963 120.45C53.8209 120.206 53.5721 120.031 53.2496 119.926C52.9733 119.836 52.7292 119.804 52.5175 119.828C52.3058 119.852 52.1261 119.896 51.9784 119.958C51.8283 120.028 51.7253 120.084 51.6694 120.125C51.5678 120.202 51.4953 120.242 51.452 120.245C51.4061 120.256 51.3409 120.247 51.2565 120.22L50.7037 120.04C50.627 120.015 50.5731 119.972 50.542 119.911C50.5008 119.855 50.4965 119.79 50.5291 119.716C50.5743 119.603 50.682 119.481 50.8521 119.35C51.0197 119.226 51.2373 119.118 51.5047 119.027C51.7721 118.936 52.0769 118.886 52.4189 118.879C52.7585 118.879 53.1279 118.944 53.5271 119.074ZM53.9385 123.131L50.7833 122.104L50.7721 122.138C50.6596 122.484 50.6249 122.812 50.668 123.123C50.7033 123.432 50.815 123.702 51.003 123.933C51.1885 124.171 51.4463 124.344 51.7764 124.452C52.1065 124.559 52.4168 124.571 52.7072 124.487C52.9875 124.409 53.2328 124.255 53.4431 124.026C53.6534 123.798 53.8148 123.511 53.9273 123.165L53.9385 123.131Z" fill="#5A5B5E"/>
<path id="r" d="M47.6266 116.816C47.6987 116.853 47.749 116.905 47.7777 116.974C47.7955 117.046 47.7862 117.118 47.7498 117.19L45.1699 122.304C45.1335 122.377 45.081 122.427 45.0123 122.456C44.9364 122.481 44.8624 122.475 44.7903 122.439L44.293 122.188C44.2209 122.151 44.1723 122.095 44.1473 122.019C44.1223 121.943 44.128 121.869 44.1644 121.797L44.4044 121.321C44.1366 121.494 43.8456 121.578 43.5315 121.573C43.2174 121.568 42.8838 121.477 42.5306 121.299L42.0981 121.08C42.026 121.044 41.9811 120.99 41.9633 120.917C41.9419 120.852 41.9493 120.784 41.9857 120.712L42.2093 120.268C42.2457 120.196 42.2964 120.15 42.3615 120.128C42.4265 120.107 42.4951 120.114 42.5672 120.151L43.2159 120.478C43.6051 120.674 43.9697 120.713 44.3095 120.595C44.6456 120.485 44.9119 120.235 45.1083 119.845L46.7118 116.667C46.7482 116.595 46.8043 116.546 46.8803 116.521C46.9525 116.503 47.0247 116.513 47.0968 116.549L47.6266 116.816Z" fill="#5A5B5E"/>
<path id="f" d="M40.7603 112.845C40.8266 112.891 40.8691 112.95 40.8878 113.022C40.8953 113.096 40.8759 113.167 40.8298 113.233L37.9453 117.378L38.7902 117.966C38.8565 118.012 38.899 118.071 38.9177 118.143C38.9252 118.217 38.9059 118.287 38.8597 118.353L38.6246 118.691C38.5784 118.758 38.5217 118.797 38.4542 118.809C38.3756 118.823 38.3031 118.807 38.2368 118.761L37.3919 118.173L37.0461 118.67C36.8109 119.008 36.5494 119.264 36.2615 119.437C35.969 119.617 35.6517 119.691 35.3097 119.66C34.961 119.624 34.5779 119.461 34.1605 119.17L33.5641 118.755C33.4978 118.709 33.4609 118.649 33.4534 118.575C33.4414 118.507 33.4584 118.44 33.5045 118.374L33.7397 118.036C33.7858 117.97 33.8449 117.927 33.9169 117.909C33.9843 117.897 34.0512 117.914 34.1174 117.96L34.694 118.361C35.0054 118.578 35.2751 118.642 35.5031 118.555C35.7264 118.475 35.9441 118.282 36.1562 117.977L36.4675 117.53L35.1853 116.637C35.119 116.591 35.0821 116.531 35.0746 116.457C35.0626 116.39 35.0796 116.323 35.1257 116.257L35.3609 115.919C35.407 115.852 35.4661 115.81 35.5381 115.791C35.6055 115.779 35.6724 115.796 35.7386 115.842L37.0209 116.734L39.9054 112.59C39.9515 112.523 40.0139 112.483 40.0926 112.469C40.16 112.457 40.2269 112.474 40.2931 112.52L40.7603 112.845Z" fill="#5A5B5E"/>
<path id="e_2" d="M33.9771 107.147C34.5796 107.72 34.884 108.36 34.8902 109.068C34.8909 109.782 34.6027 110.477 34.0257 111.154C33.9592 111.236 33.8703 111.335 33.759 111.452C33.6422 111.575 33.5446 111.671 33.4665 111.742C33.048 112.135 32.6065 112.406 32.1419 112.554C31.6718 112.709 31.2098 112.732 30.756 112.623C30.2963 112.509 29.8676 112.263 29.4698 111.884C29.0253 111.462 28.7429 111.015 28.6226 110.544C28.4965 110.067 28.5187 109.581 28.689 109.086C28.8594 108.59 29.1644 108.112 29.604 107.65L29.7459 107.5C29.8071 107.436 29.8749 107.406 29.9492 107.41C30.0177 107.408 30.0812 107.435 30.1397 107.491L33.1755 110.379C33.181 110.373 33.1922 110.361 33.2089 110.344C33.2256 110.326 33.2395 110.311 33.2506 110.3C33.467 110.049 33.6286 109.773 33.7354 109.474C33.8365 109.18 33.8606 108.885 33.8075 108.59C33.7545 108.294 33.6051 108.029 33.3594 107.796C33.1489 107.595 32.9428 107.461 32.7412 107.391C32.5396 107.322 32.3588 107.284 32.1987 107.277C32.033 107.275 31.9161 107.281 31.8479 107.294C31.7229 107.32 31.6403 107.325 31.5999 107.309C31.5539 107.298 31.4988 107.263 31.4345 107.201L31.0133 106.801C30.9548 106.745 30.9247 106.683 30.923 106.615C30.9099 106.546 30.9341 106.486 30.9956 106.433C31.0849 106.351 31.2346 106.287 31.4448 106.242C31.6494 106.202 31.892 106.199 32.1726 106.232C32.4533 106.265 32.7495 106.352 33.0614 106.493C33.3677 106.639 33.673 106.857 33.9771 107.147ZM32.5995 110.984L30.1955 108.697L30.1704 108.723C29.92 108.987 29.7472 109.268 29.6518 109.567C29.5507 109.861 29.5351 110.153 29.6051 110.442C29.6696 110.737 29.8276 111.005 30.0791 111.244C30.3307 111.483 30.6055 111.628 30.9037 111.677C31.1905 111.727 31.478 111.694 31.7664 111.579C32.0547 111.463 32.3241 111.274 32.5745 111.01L32.5995 110.984Z" fill="#5A5B5E"/>
<path id="i" d="M29.6068 102.524C29.6573 102.587 29.6813 102.656 29.6789 102.73C29.665 102.804 29.6266 102.865 29.5636 102.916L25.0839 106.505C25.0208 106.555 24.9553 106.577 24.8872 106.569C24.8078 106.56 24.7428 106.525 24.6923 106.462L24.3289 106.008C24.2784 105.945 24.2601 105.877 24.2739 105.804C24.2814 105.736 24.3167 105.676 24.3797 105.626L28.8594 102.037C28.9225 101.986 28.9911 101.962 29.0655 101.965C29.1336 101.972 29.1929 102.008 29.2434 102.071L29.6068 102.524ZM23.8362 107.272C23.8866 107.335 23.9106 107.403 23.9082 107.478C23.8944 107.551 23.8559 107.613 23.7929 107.663L23.2826 108.072C23.2196 108.123 23.154 108.144 23.0859 108.136C23.0065 108.128 22.9415 108.092 22.8911 108.029L22.414 107.433C22.3636 107.37 22.3452 107.302 22.3591 107.229C22.3615 107.155 22.3943 107.092 22.4573 107.042L22.9676 106.633C23.0306 106.583 23.1018 106.562 23.1813 106.57C23.2494 106.578 23.3087 106.613 23.3591 106.676L23.8362 107.272Z" fill="#5A5B5E"/>
<path id="t" d="M25.2739 96.2666C25.5111 96.6515 25.6317 97.0087 25.6356 97.3382C25.6326 97.6719 25.531 97.9764 25.3307 98.2515C25.1236 98.5309 24.8344 98.785 24.4633 99.0137L21.7415 100.691L22.2371 101.495C22.2795 101.564 22.2948 101.635 22.2832 101.708C22.2605 101.779 22.2148 101.836 22.1461 101.878L21.7956 102.094C21.7268 102.137 21.6592 102.15 21.5925 102.134C21.5147 102.116 21.4547 102.072 21.4123 102.003L20.9168 101.199L19.1951 102.26C19.1263 102.303 19.0586 102.316 18.992 102.3C18.9142 102.282 18.8542 102.238 18.8118 102.169L18.5132 101.685C18.4709 101.616 18.461 101.546 18.4837 101.475C18.4953 101.402 18.5355 101.344 18.6042 101.301L20.3259 100.24L19.5381 98.962C19.4957 98.8933 19.4859 98.8235 19.5086 98.7526C19.5202 98.6791 19.5604 98.6212 19.6291 98.5788L19.9796 98.3628C20.0484 98.3204 20.1216 98.3085 20.1994 98.3269C20.266 98.3428 20.3205 98.385 20.3629 98.4538L21.1507 99.7322L23.8002 98.0994C24.1233 97.9003 24.3437 97.6886 24.4615 97.4643C24.5793 97.2399 24.5514 96.9869 24.3777 96.7051L23.9902 96.0762C23.9478 96.0075 23.938 95.9377 23.9607 95.8668C23.9723 95.7932 24.0124 95.7353 24.0812 95.693L24.4523 95.4642C24.521 95.4219 24.5943 95.4099 24.672 95.4284C24.7387 95.4442 24.7932 95.4865 24.8356 95.5552L25.2739 96.2666Z" fill="#5A5B5E"/>
<path id="o" d="M22.1222 89.6005C22.3577 90.167 22.4464 90.6854 22.3882 91.1554C22.33 91.6255 22.1527 92.0402 21.8562 92.3995C21.5522 92.7619 21.1588 93.0566 20.6761 93.2835C20.5524 93.3436 20.3937 93.4139 20.1999 93.4945C19.9986 93.5782 19.8368 93.6411 19.7144 93.6832C19.2056 93.8684 18.7193 93.9394 18.2554 93.8962C17.7884 93.8455 17.3678 93.675 16.9936 93.3846C16.6194 93.0943 16.3161 92.6696 16.0837 92.1104C15.8513 91.5513 15.7641 91.0367 15.8223 90.5667C15.8804 90.0966 16.0578 89.6819 16.3543 89.3226C16.6478 88.9558 17.0396 88.6574 17.5298 88.4274C17.6459 88.3704 17.8047 88.3001 18.006 88.2164C18.1998 88.1358 18.3616 88.0729 18.4915 88.0277C18.9928 87.8456 19.4791 87.7746 19.9504 87.8147C20.4143 87.858 20.8334 88.0247 21.2076 88.3151C21.5818 88.6054 21.8867 89.0339 22.1222 89.6005ZM21.2611 89.9584C21.069 89.4962 20.7703 89.1876 20.3649 89.0326C19.952 88.8807 19.4576 88.9113 18.8818 89.1245C18.7668 89.1635 18.6236 89.2186 18.4522 89.2899C18.2807 89.3612 18.1406 89.4238 18.0319 89.4777C17.4746 89.7356 17.1079 90.0629 16.9318 90.4596C16.7483 90.8593 16.7526 91.2903 16.9447 91.7525C17.1368 92.2147 17.4409 92.5255 17.8568 92.6849C18.2622 92.8398 18.7513 92.807 19.3241 92.5864C19.439 92.5474 19.5822 92.4923 19.7537 92.421C19.9251 92.3497 20.0652 92.2871 20.1739 92.2332C20.7343 91.9828 21.1063 91.6577 21.2898 91.2579C21.4628 90.8538 21.4533 90.4206 21.2611 89.9584Z" fill="#5A5B5E"/>
<path id="p" d="M20.9813 77.5382C20.9903 77.6184 20.9699 77.6898 20.9201 77.7522C20.8774 77.8058 20.816 77.8371 20.7357 77.8462L12.7455 78.7483C12.6652 78.7573 12.5983 78.7405 12.5448 78.6978C12.4823 78.648 12.4465 78.583 12.4374 78.5027L12.3749 77.9492C12.3659 77.869 12.3867 77.8016 12.4374 77.7471C12.4792 77.6855 12.5402 77.6502 12.6205 77.6412L13.1499 77.5814C12.8635 77.4187 12.6139 77.1869 12.4012 76.886C12.1884 76.585 12.0549 76.1938 12.0006 75.7125C11.9498 75.2632 11.983 74.8736 12.1001 74.5435C12.2163 74.2054 12.3955 73.9211 12.6376 73.6907C12.8788 73.4522 13.1619 73.2618 13.4871 73.1195C13.8123 72.9771 14.1669 72.8802 14.5511 72.8287C14.6786 72.8062 14.8145 72.7868 14.9589 72.7705C15.1033 72.7542 15.2401 72.7428 15.3694 72.7364C15.7474 72.7018 16.1147 72.7172 16.4714 72.7826C16.8201 72.8488 17.1386 72.9713 17.4269 73.15C17.7063 73.3216 17.9443 73.5587 18.141 73.8615C18.3287 74.1572 18.448 74.5296 18.4987 74.9789C18.5512 75.4442 18.5114 75.8468 18.3791 76.1867C18.2379 76.5195 18.0503 76.8007 17.8162 77.0302L20.608 76.715C20.6883 76.706 20.7552 76.7228 20.8087 76.7655C20.8703 76.8073 20.9061 76.8723 20.9161 76.9606L20.9813 77.5382ZM17.5525 75.3416C17.5054 74.9245 17.3805 74.6095 17.1777 74.3968C16.966 74.177 16.7099 74.0312 16.4093 73.9595C16.1007 73.8887 15.777 73.8643 15.4383 73.8863C15.2047 73.9046 14.9721 73.9308 14.7403 73.9651C14.4052 74.0192 14.0991 74.1147 13.8221 74.2516C13.537 74.3894 13.3199 74.5886 13.1705 74.8492C13.0123 75.1027 12.9567 75.438 13.0038 75.8552C13.0482 76.2483 13.1767 76.5587 13.3893 76.7866C13.601 77.0064 13.858 77.1602 14.1604 77.248C14.4538 77.3286 14.7499 77.3601 15.0485 77.3427C15.1778 77.3362 15.3307 77.323 15.5072 77.3031C15.6837 77.2832 15.8396 77.2615 15.9751 77.2381C16.255 77.1983 16.5245 77.1029 16.7837 76.9518C17.042 76.7926 17.2453 76.5788 17.3937 76.3101C17.5421 76.0415 17.5951 75.7187 17.5525 75.3416Z" fill="#5A5B5E"/>
<path id="a" d="M18.3361 67.2134C18.3129 67.6164 18.2111 67.9785 18.0308 68.2997C17.8506 68.6208 17.6176 68.8742 17.3319 69.0599C17.0463 69.2456 16.7301 69.3284 16.3836 69.3084C15.8274 69.2763 15.3972 69.025 15.0928 68.5546C14.7884 68.0842 14.6047 67.4832 14.5418 66.7518L14.3919 64.9358L14.0413 64.9155C13.6544 64.8932 13.3456 64.9886 13.115 65.2017C12.8848 65.4067 12.7553 65.7591 12.7265 66.2588C12.7055 66.6215 12.7611 66.9199 12.8931 67.154C13.0257 67.38 13.2022 67.5438 13.4227 67.6455C13.5409 67.7008 13.5964 67.7889 13.5894 67.9098L13.558 68.4539C13.5529 68.5425 13.5248 68.6097 13.4736 68.6552C13.4149 68.6923 13.3492 68.7087 13.2767 68.7045C13.1558 68.6975 13.0093 68.6446 12.8371 68.5457C12.6653 68.4387 12.5004 68.2837 12.3423 68.0805C12.1842 67.8772 12.0574 67.6233 11.9617 67.3185C11.8585 67.0053 11.8195 66.631 11.8446 66.1958C11.8725 65.7122 11.9605 65.3089 12.1085 64.9859C12.2485 64.6624 12.4286 64.414 12.6489 64.2408C12.8696 64.0594 13.1153 63.9361 13.3859 63.8709C13.657 63.7976 13.9296 63.7688 14.2036 63.7846L18.1207 64.0108C18.2013 64.0154 18.2682 64.0476 18.3214 64.1073C18.3669 64.1584 18.3874 64.2243 18.3827 64.3049L18.3506 64.861C18.3455 64.9497 18.3174 65.0168 18.2662 65.0624C18.207 65.1075 18.1371 65.1277 18.0565 65.123L17.5367 65.093C17.6757 65.2062 17.8126 65.3556 17.9475 65.5413C18.0742 65.7265 18.1783 65.9549 18.2597 66.2265C18.333 66.4976 18.3585 66.8266 18.3361 67.2134ZM17.4441 66.9072C17.4631 66.5767 17.4121 66.2705 17.2909 65.9886C17.1616 65.7062 16.9523 65.4798 16.6629 65.3095C16.374 65.131 16.0039 65.0288 15.5525 65.0028L15.214 64.9832L15.3386 66.3975C15.3861 66.9744 15.4983 67.4135 15.675 67.7148C15.8436 68.0157 16.073 68.1745 16.3631 68.1913C16.5888 68.2043 16.7819 68.1507 16.9425 68.0306C17.0955 67.902 17.2141 67.739 17.2983 67.5417C17.3829 67.3363 17.4315 67.1248 17.4441 66.9072Z" fill="#5A5B5E"/>
<path id="r_2" d="M19.0629 60.1828C19.046 60.2618 19.008 60.3238 18.9489 60.369C18.8835 60.4046 18.8113 60.4139 18.7324 60.3971L13.1303 59.2022C13.0514 59.1854 12.9893 59.1474 12.9442 59.0882C12.9007 59.0211 12.8874 58.9481 12.9042 58.8692L13.0204 58.3244C13.0372 58.2454 13.0792 58.1842 13.1463 58.1407C13.2133 58.0972 13.2863 58.0839 13.3653 58.1008L13.8864 58.2119C13.6516 57.9967 13.4966 57.7367 13.4213 57.4317C13.346 57.1267 13.3496 56.7808 13.4322 56.3939L13.5332 55.9201C13.5501 55.8412 13.5912 55.7839 13.6565 55.7483C13.714 55.711 13.7822 55.7008 13.8612 55.7177L14.3468 55.8213C14.4257 55.8381 14.4839 55.8753 14.5211 55.9327C14.5584 55.9902 14.5686 56.0584 14.5518 56.1374L14.4002 56.848C14.3093 57.2744 14.364 57.6369 14.5645 57.9355C14.757 58.2325 15.0665 58.4265 15.4929 58.5174L18.9749 59.2601C19.0538 59.277 19.115 59.3189 19.1585 59.386C19.1941 59.4513 19.2035 59.5235 19.1866 59.6025L19.0629 60.1828Z" fill="#5A5B5E"/>
<path id="a_2" d="M21.5532 51.8075C21.41 52.1849 21.2043 52.4997 20.9359 52.7519C20.6675 53.0041 20.3692 53.1759 20.0409 53.2672C19.7127 53.3586 19.3863 53.3427 19.0617 53.2195C18.5409 53.0219 18.2059 52.653 18.0568 52.1129C17.9077 51.5728 17.913 50.9444 18.0726 50.2279L18.4749 48.4506L18.1466 48.326C17.7842 48.1886 17.4611 48.1868 17.1771 48.3209C16.896 48.4473 16.6666 48.7446 16.4891 49.2126C16.3602 49.5522 16.3236 49.8535 16.3793 50.1164C16.4378 50.3718 16.557 50.5811 16.7368 50.7443C16.8329 50.8325 16.8594 50.9333 16.8165 51.0465L16.6232 51.556C16.5917 51.639 16.5447 51.6946 16.4822 51.7227C16.415 51.7404 16.3475 51.7364 16.2796 51.7106C16.1663 51.6676 16.0424 51.5731 15.9079 51.4271C15.7762 51.2735 15.6654 51.0761 15.5757 50.8348C15.4859 50.5935 15.4411 50.3131 15.4414 49.9937C15.437 49.664 15.5122 49.2953 15.6668 48.8876C15.8386 48.4347 16.0437 48.0765 16.2819 47.8128C16.5125 47.5463 16.7589 47.3635 17.021 47.2643C17.286 47.1576 17.5574 47.1138 17.8351 47.1328C18.1157 47.1443 18.3843 47.1987 18.641 47.2961L22.3094 48.6879C22.3849 48.7166 22.439 48.7673 22.4718 48.8402C22.4999 48.9027 22.4997 48.9717 22.471 49.0472L22.2734 49.568C22.2419 49.651 22.1949 49.7066 22.1325 49.7347C22.0624 49.7599 21.9897 49.7582 21.9142 49.7296L21.4273 49.5449C21.526 49.6946 21.6117 49.8782 21.6846 50.0958C21.7499 50.3106 21.7806 50.5597 21.7767 50.8431C21.7652 51.1237 21.6907 51.4452 21.5532 51.8075ZM20.7943 51.2475C20.9117 50.9381 20.9549 50.6307 20.924 50.3253C20.8855 50.0171 20.7538 49.7384 20.5289 49.489C20.3069 49.232 19.9846 49.0234 19.5619 48.863L19.2448 48.7427L18.939 50.1292C18.8111 50.6937 18.7862 51.1462 18.8643 51.4867C18.9348 51.8243 19.1059 52.0447 19.3777 52.1478C19.589 52.228 19.7893 52.2349 19.9786 52.1685C20.1631 52.0918 20.3252 51.9719 20.4647 51.809C20.6071 51.6385 20.7169 51.4514 20.7943 51.2475Z" fill="#5A5B5E"/>
<path id="v" d="M28.3109 39.1113C28.2393 39.209 28.1592 39.2705 28.0707 39.2957C27.9869 39.3144 27.8973 39.3137 27.8018 39.2938L21.9452 37.7795C21.9031 37.7686 21.8658 37.7513 21.8332 37.7274C21.7746 37.6845 21.7401 37.6291 21.7297 37.5614C21.7192 37.4937 21.7355 37.4306 21.7784 37.372L22.122 36.9031C22.1745 36.8315 22.2346 36.7904 22.3023 36.78C22.37 36.7696 22.4225 36.773 22.4599 36.7904L27.4036 38.1162L24.6431 33.8112C24.6201 33.7743 24.601 33.7252 24.5858 33.664C24.5753 33.5963 24.5964 33.5267 24.6489 33.455L24.9996 32.9764C25.0378 32.9243 25.0907 32.893 25.1584 32.8826C25.2309 32.8657 25.2964 32.8787 25.3551 32.9216C25.3876 32.9455 25.4154 32.9758 25.4384 33.0127L28.6393 38.151C28.6919 38.2295 28.7194 38.3148 28.7221 38.4068C28.7295 38.4923 28.695 38.5871 28.6187 38.6913L28.3109 39.1113Z" fill="#5A5B5E"/>
<path id="o_2" d="M34.2711 32.5287C33.8299 32.9551 33.3799 33.2271 32.9212 33.3449C32.4624 33.4627 32.0116 33.4492 31.5687 33.3046C31.1202 33.1542 30.7021 32.8959 30.3144 32.5295C30.2132 32.4365 30.0897 32.3144 29.9439 32.1635C29.7924 32.0067 29.6747 31.8791 29.5907 31.7806C29.2322 31.3748 28.9883 30.9481 28.8589 30.5006C28.7354 30.0474 28.7403 29.5936 28.8737 29.1391C29.007 28.6846 29.2914 28.247 29.7268 27.8262C30.1623 27.4055 30.6094 27.1362 31.0681 27.0184C31.5269 26.9007 31.9777 26.9141 32.4206 27.0587C32.8693 27.1977 33.2903 27.4533 33.6836 27.8254C33.7791 27.9127 33.9027 28.0347 34.0541 28.1914C34.2 28.3424 34.3177 28.47 34.4073 28.5743C34.7602 28.9743 35.0041 29.401 35.1391 29.8543C35.2684 30.3019 35.2664 30.7529 35.1331 31.2074C34.9997 31.6619 34.7124 32.1023 34.2711 32.5287ZM33.6232 31.8582C33.9831 31.5103 34.1611 31.1194 34.1571 30.6854C34.1475 30.2456 33.9382 29.7967 33.5292 29.3386C33.4509 29.2459 33.3472 29.1328 33.2182 28.9993C33.0891 28.8658 32.9796 28.7583 32.8897 28.6768C32.4459 28.2524 32.0072 28.0308 31.5736 28.012C31.1343 27.9873 30.7348 28.1489 30.3748 28.4968C30.0149 28.8446 29.8368 29.2412 29.8406 29.6866C29.8446 30.1206 30.054 30.5639 30.4688 31.0163C30.5471 31.109 30.6508 31.2221 30.7798 31.3556C30.9089 31.4891 31.0184 31.5966 31.1083 31.6781C31.5463 32.1081 31.9849 32.3354 32.4241 32.3601C32.8636 32.3733 33.2632 32.206 33.6232 31.8582Z" fill="#5A5B5E"/>
<path id="c" d="M41.3607 26.8509C40.887 27.1737 40.4153 27.3632 39.9457 27.4195C39.4781 27.4646 39.035 27.3807 38.6163 27.1677C38.1931 26.9481 37.8111 26.6027 37.4704 26.1315C37.3956 26.036 37.3013 25.9048 37.1876 25.738C37.074 25.5712 36.9864 25.4355 36.9248 25.3309C36.6108 24.8415 36.4313 24.363 36.3862 23.8955C36.3366 23.4212 36.4205 22.9781 36.638 22.5661C36.8576 22.1429 37.2042 21.7699 37.6779 21.4471C38.0648 21.1834 38.4314 21.0117 38.7777 20.932C39.1306 20.8478 39.454 20.8277 39.7478 20.8717C40.0416 20.9157 40.2978 21.0049 40.5163 21.1393C40.7416 21.2691 40.9167 21.4185 41.0416 21.5874C41.0937 21.6495 41.11 21.7166 41.0906 21.7884C41.0712 21.8603 41.0281 21.9189 40.9614 21.9644L40.4811 22.2918C40.4144 22.3372 40.3553 22.358 40.3037 22.354C40.2476 22.3434 40.1779 22.3128 40.0945 22.2621C39.7517 22.0171 39.4313 21.8983 39.1336 21.9058C38.8359 21.9133 38.5335 22.0217 38.2267 22.2308C37.8264 22.5036 37.5836 22.8498 37.4983 23.2694C37.4197 23.6845 37.5568 24.1724 37.9096 24.7331C38.0666 24.9778 38.2258 25.2113 38.387 25.4335C38.7844 25.9736 39.1906 26.283 39.6057 26.3616C40.0229 26.429 40.4316 26.3263 40.8319 26.0535C41.1388 25.8443 41.3502 25.6026 41.466 25.3282C41.5819 25.0538 41.5885 24.7123 41.4858 24.3035C41.4691 24.2074 41.4684 24.1347 41.4836 24.0852C41.4942 24.0291 41.5329 23.9784 41.5996 23.9329L42.0799 23.6055C42.1466 23.5601 42.217 23.5414 42.2909 23.5496C42.3649 23.5578 42.4213 23.5976 42.4601 23.6688C42.5489 23.8135 42.6166 23.9774 42.6633 24.1605C42.71 24.3437 42.7255 24.5529 42.71 24.7882C42.6966 25.0122 42.6441 25.2434 42.5525 25.4817C42.4564 25.7133 42.3099 25.9499 42.113 26.1915C41.9183 26.4219 41.6675 26.6417 41.3607 26.8509Z" fill="#5A5B5E"/>
<path id="&#195;&#170;" d="M48.7643 22.7534C48.0098 23.103 47.3022 23.1507 46.6415 22.8963C45.9774 22.6346 45.4367 22.1111 45.0193 21.3257C44.9679 21.2339 44.9082 21.1147 44.8403 20.9682C44.769 20.8144 44.7149 20.6882 44.6781 20.5896C44.4664 20.0559 44.3768 19.5458 44.4093 19.0591C44.4384 18.5651 44.5868 18.127 44.8546 17.7449C45.1297 17.3593 45.5163 17.0511 46.0144 16.8202C46.5711 16.5622 47.0906 16.4639 47.5728 16.5251C48.0623 16.583 48.5061 16.7822 48.9042 17.1227C49.3022 17.4632 49.6354 17.9228 49.9035 18.5014L49.9901 18.6882C50.0275 18.7688 50.0307 18.8429 49.9998 18.9106C49.9762 18.975 49.9278 19.0241 49.8545 19.058L46.0529 20.82C46.0563 20.8273 46.0631 20.8419 46.0733 20.8639C46.0835 20.8859 46.092 20.9042 46.0988 20.9189C46.2526 21.2124 46.4492 21.4638 46.6886 21.6732C46.9247 21.8753 47.1899 22.0059 47.4843 22.0652C47.7787 22.1245 48.0798 22.0829 48.3874 21.9403C48.6511 21.8181 48.8522 21.676 48.9906 21.5139C49.1291 21.3519 49.2312 21.1978 49.2969 21.0516C49.3593 20.8982 49.3969 20.7873 49.4097 20.719C49.4315 20.5933 49.4573 20.5146 49.4872 20.4829C49.5136 20.444 49.5671 20.4058 49.6477 20.3685L50.1751 20.1241C50.2483 20.0901 50.3171 20.0849 50.3814 20.1085C50.4497 20.1214 50.4971 20.1661 50.5238 20.2428C50.5673 20.356 50.5716 20.5187 50.5364 20.7308C50.4978 20.9355 50.4116 21.1623 50.2778 21.4112C50.144 21.6601 49.9544 21.9037 49.7089 22.1421C49.46 22.3731 49.1451 22.5768 48.7643 22.7534ZM45.7016 20.0618L48.7121 18.6666L48.6968 18.6336C48.544 18.304 48.346 18.0398 48.1026 17.8412C47.8666 17.6391 47.6011 17.5175 47.3062 17.4762C47.0078 17.4276 46.7011 17.4763 46.3862 17.6223C46.0712 17.7683 45.8358 17.9708 45.68 18.2299C45.5282 18.4782 45.4531 18.7577 45.4547 19.0684C45.4563 19.3791 45.5335 19.6993 45.6863 20.0289L45.7016 20.0618ZM44.1891 16.7986C44.0793 16.8495 44.004 16.8311 43.9632 16.7432C43.9361 16.6846 43.9441 16.5963 43.9873 16.4784L44.5297 14.9991C44.5656 14.8845 44.6075 14.8117 44.6554 14.7806C44.7072 14.7388 44.7624 14.7043 44.821 14.6772L45.1506 14.5244C45.2165 14.4939 45.2785 14.474 45.3366 14.4649C45.3912 14.4485 45.4739 14.4636 45.5845 14.5102L47.0638 15.0525C47.1744 15.0992 47.2432 15.1518 47.2704 15.2104C47.3111 15.2983 47.2802 15.366 47.1777 15.4135L46.892 15.5459C46.8407 15.5697 46.7824 15.5878 46.717 15.6003C46.6516 15.6128 46.5955 15.6166 46.5487 15.6116L45.3575 15.4029L44.7468 16.4467C44.713 16.4891 44.6703 16.5311 44.6185 16.573C44.574 16.6114 44.5261 16.6425 44.4748 16.6662L44.1891 16.7986Z" fill="#5A5B5E"/>
<path id="&#226;&#128;&#162;" d="M60.6272 16.4318C60.3967 16.4728 60.1722 16.4553 59.9537 16.3793C59.7338 16.2954 59.5472 16.1687 59.3941 15.9991C59.2475 15.8202 59.1537 15.6154 59.1127 15.3849C59.0703 15.1465 59.0878 14.922 59.1652 14.7114C59.2491 14.4915 59.3805 14.3082 59.5594 14.1616C59.7369 14.0071 59.941 13.9093 60.1715 13.8683C60.4099 13.8259 60.6351 13.8474 60.8471 13.9327C61.0577 14.0101 61.2362 14.1382 61.3829 14.3171C61.536 14.4867 61.6338 14.6907 61.6762 14.9292C61.7171 15.1597 61.6957 15.3849 61.6118 15.6048C61.5344 15.8154 61.411 15.9972 61.2414 16.1504C61.0704 16.2956 60.8657 16.3894 60.6272 16.4318Z" fill="#E6AA11"/>
<path id="P_2" d="M72.7629 18.0764C72.6745 18.0681 72.6085 18.0376 72.5648 17.9848C72.5219 17.924 72.5042 17.8534 72.5117 17.773L73.2527 9.89998C73.261 9.81157 73.2916 9.74551 73.3443 9.70183C73.3979 9.6501 73.4688 9.6284 73.5572 9.63672L76.6196 9.92493C77.2144 9.98091 77.7198 10.1258 78.1357 10.3595C78.5596 10.5941 78.874 10.9156 79.0788 11.3241C79.2844 11.7245 79.3603 12.2101 79.3066 12.7808C79.2529 13.3515 79.0877 13.8144 78.811 14.1695C78.5343 14.5245 78.1659 14.7777 77.7056 14.929C77.2534 15.0811 76.7299 15.1291 76.1351 15.0732L74.0011 14.8723L73.7174 17.8865C73.7098 17.9669 73.6753 18.0325 73.6137 18.0835C73.561 18.1272 73.4904 18.1449 73.402 18.1366L72.7629 18.0764ZM74.0843 13.8584L76.1702 14.0547C76.765 14.1107 77.2235 14.0201 77.5459 13.7828C77.8683 13.5455 78.0533 13.1737 78.1009 12.6673C78.1478 12.169 78.0395 11.7696 77.7758 11.469C77.5122 11.1685 77.0749 10.9895 76.464 10.932L74.3782 10.7357L74.0843 13.8584Z" fill="#5A5B5E"/>
<path id="e_3" d="M84.3849 20.1883C83.5834 19.9667 83.0131 19.5451 82.674 18.9236C82.3371 18.2944 82.2636 17.5453 82.4536 16.6765C82.4738 16.5731 82.5054 16.4437 82.5484 16.2881C82.5936 16.1246 82.6341 15.9934 82.6698 15.8944C82.8537 15.3506 83.1155 14.9036 83.4552 14.5536C83.7971 14.1958 84.1938 13.9579 84.6452 13.8398C85.1045 13.7239 85.5987 13.7391 86.1278 13.8854C86.7192 14.049 87.1788 14.3101 87.5068 14.6688C87.8426 15.0297 88.0521 15.4688 88.1352 15.986C88.2184 16.5032 88.1749 17.0691 88.0049 17.6838L87.9501 17.8823C87.9264 17.9679 87.8809 18.0265 87.8135 18.0581C87.7539 18.0919 87.6852 18.098 87.6074 18.0765L83.5689 16.9597C83.5667 16.9675 83.5624 16.9831 83.556 17.0064C83.5495 17.0298 83.5441 17.0492 83.5398 17.0648C83.4672 17.3881 83.4544 17.7071 83.5014 18.0216C83.5506 18.3284 83.6683 18.5997 83.8544 18.8354C84.0405 19.0711 84.2969 19.2342 84.6237 19.3246C84.9039 19.402 85.1491 19.4238 85.3595 19.3898C85.57 19.3559 85.7475 19.3045 85.8922 19.2356C86.0391 19.1589 86.1395 19.0987 86.1934 19.055C86.2914 18.9732 86.362 18.9299 86.4053 18.9251C86.4506 18.9125 86.5161 18.9181 86.6017 18.9417L87.1619 19.0967C87.2398 19.1182 87.2956 19.1587 87.3293 19.2183C87.373 19.2723 87.3802 19.3371 87.3509 19.4128C87.3109 19.5274 87.2088 19.6541 87.0448 19.793C86.8829 19.9241 86.6704 20.0413 86.4073 20.1444C86.1443 20.2476 85.842 20.3106 85.5007 20.3335C85.1614 20.3486 84.7895 20.3002 84.3849 20.1883ZM83.7916 16.1544L86.9897 17.0387L86.9994 17.0037C87.0962 16.6536 87.1162 16.324 87.0592 16.0151C87.01 15.7083 86.8863 15.4438 86.6881 15.2214C86.4921 14.9913 86.2268 14.83 85.8922 14.7375C85.5576 14.645 85.2471 14.647 84.9607 14.7438C84.6842 14.8348 84.446 14.9993 84.2462 15.2372C84.0464 15.4752 83.8981 15.7692 83.8013 16.1194L83.7916 16.1544Z" fill="#5A5B5E"/>
<path id="r_3" d="M90.3816 22.1789C90.3079 22.1458 90.2553 22.0956 90.2236 22.0282C90.2025 21.9568 90.2086 21.8843 90.2417 21.8107L92.5892 16.5858C92.6223 16.5121 92.6725 16.4595 92.7398 16.4278C92.8145 16.3994 92.8887 16.4017 92.9624 16.4348L93.4705 16.6631C93.5441 16.6962 93.5952 16.7501 93.6235 16.8248C93.6519 16.8995 93.6496 16.9737 93.6165 17.0473L93.3981 17.5334C93.6579 17.3492 93.9448 17.2524 94.2588 17.243C94.5728 17.2336 94.9102 17.31 95.271 17.4721L95.7129 17.6706C95.7865 17.7037 95.8339 17.756 95.8549 17.8274C95.8792 17.8914 95.8748 17.9602 95.8418 18.0339L95.6383 18.4868C95.6052 18.5604 95.5566 18.6094 95.4926 18.6337C95.4285 18.6581 95.3597 18.6537 95.2861 18.6206L94.6233 18.3228C94.2256 18.1442 93.8597 18.1214 93.5255 18.2544C93.1947 18.3802 92.9399 18.6419 92.7612 19.0395L91.3021 22.2871C91.269 22.3608 91.2151 22.4118 91.1404 22.4402C91.069 22.4612 90.9965 22.4552 90.9228 22.4221L90.3816 22.1789Z" fill="#5A5B5E"/>
<path id="f_2" d="M97.4189 25.8376C97.3506 25.7945 97.3055 25.7374 97.2836 25.6662C97.2728 25.5926 97.289 25.5216 97.332 25.4534L100.027 21.183L99.1569 20.6336C99.0887 20.5905 99.0436 20.5333 99.0216 20.4622C99.0108 20.3886 99.027 20.3176 99.0701 20.2493L99.2898 19.9012C99.3329 19.8329 99.3879 19.7912 99.4547 19.7761C99.5327 19.7585 99.6058 19.7712 99.674 19.8143L100.545 20.3637L100.868 19.8517C101.087 19.5035 101.337 19.2363 101.617 19.0501C101.901 18.8571 102.215 18.7687 102.558 18.7847C102.908 18.8051 103.298 18.951 103.728 19.2225L104.342 19.6103C104.411 19.6534 104.45 19.7118 104.461 19.7854C104.476 19.8522 104.462 19.9198 104.419 19.9881L104.199 20.3362C104.156 20.4045 104.099 20.4496 104.028 20.4716C103.961 20.4867 103.894 20.4727 103.825 20.4296L103.231 20.0547C102.91 19.8522 102.638 19.7996 102.414 19.897C102.195 19.9876 101.986 20.1899 101.788 20.504L101.497 20.9648L102.818 21.7986C102.886 21.8417 102.926 21.9001 102.937 21.9737C102.952 22.0406 102.938 22.1081 102.895 22.1764L102.675 22.5246C102.632 22.5928 102.575 22.6379 102.503 22.6599C102.437 22.675 102.369 22.661 102.301 22.6179L100.98 21.7841L98.2844 26.0545C98.2413 26.1227 98.1808 26.1657 98.1029 26.1833C98.0361 26.1984 97.9685 26.1844 97.9002 26.1413L97.4189 25.8376Z" fill="#5A5B5E"/>
<path id="e_4" d="M104.452 31.2255C103.824 30.68 103.491 30.0538 103.453 29.3469C103.42 28.6338 103.677 27.9263 104.223 27.2242C104.286 27.1397 104.37 27.0365 104.476 26.9146C104.587 26.7867 104.68 26.6857 104.755 26.6118C105.156 26.2004 105.585 25.91 106.042 25.7406C106.505 25.5652 106.965 25.5215 107.423 25.6096C107.888 25.703 108.327 25.9297 108.741 26.2899C109.205 26.6924 109.507 27.1262 109.648 27.5913C109.795 28.0617 109.795 28.5481 109.647 29.0506C109.499 29.5531 109.216 30.0451 108.798 30.5265L108.663 30.6818C108.604 30.7489 108.538 30.7821 108.464 30.7816C108.395 30.7864 108.331 30.7623 108.27 30.7093L105.107 27.9606C105.102 27.9667 105.091 27.9789 105.075 27.9972C105.06 28.0155 105.046 28.0307 105.036 28.0429C104.831 28.3033 104.682 28.5856 104.589 28.8897C104.501 29.1877 104.49 29.4832 104.556 29.7761C104.622 30.069 104.784 30.3267 105.039 30.5492C105.259 30.7398 105.471 30.8652 105.675 30.9253C105.88 30.9854 106.062 31.0155 106.222 31.0157C106.388 31.0099 106.504 30.9989 106.572 30.9827C106.696 30.9511 106.778 30.9425 106.819 30.9568C106.865 30.965 106.922 30.9982 106.989 31.0565L107.428 31.4378C107.489 31.4908 107.522 31.5514 107.527 31.6198C107.543 31.6873 107.521 31.7489 107.462 31.8045C107.377 31.8906 107.23 31.961 107.022 32.0156C106.819 32.0641 106.577 32.0782 106.295 32.0579C106.013 32.0376 105.714 31.9641 105.396 31.8376C105.083 31.705 104.768 31.5009 104.452 31.2255ZM105.655 27.33L108.16 29.5067L108.184 29.4793C108.422 29.2051 108.582 28.9163 108.664 28.613C108.752 28.315 108.754 28.023 108.671 27.7369C108.593 27.4448 108.424 27.1848 108.162 26.9571C107.9 26.7294 107.618 26.5974 107.318 26.5612C107.03 26.5242 106.744 26.5699 106.461 26.6984C106.178 26.827 105.918 27.0283 105.679 27.3026L105.655 27.33Z" fill="#5A5B5E"/>
<path id="i_2" d="M109.024 35.6469C108.971 35.5862 108.944 35.5186 108.943 35.4442C108.954 35.3705 108.989 35.307 109.05 35.2538L113.364 31.4671C113.424 31.4139 113.489 31.3895 113.557 31.3939C113.637 31.3991 113.704 31.4321 113.757 31.4927L114.14 31.9296C114.194 31.9903 114.215 32.0574 114.204 32.1311C114.2 32.1995 114.167 32.2603 114.107 32.3136L109.793 36.1002C109.732 36.1535 109.665 36.1805 109.59 36.1814C109.522 36.177 109.461 36.1444 109.408 36.0837L109.024 35.6469ZM114.576 30.645C114.523 30.5843 114.495 30.5168 114.495 30.4424C114.505 30.3687 114.541 30.3052 114.601 30.2519L115.093 29.8206C115.154 29.7673 115.218 29.7429 115.286 29.7473C115.366 29.7525 115.433 29.7855 115.486 29.8461L115.989 30.4195C116.042 30.4802 116.064 30.5474 116.053 30.6211C116.054 30.6955 116.024 30.7593 115.964 30.8126L115.472 31.244C115.411 31.2972 115.341 31.3213 115.262 31.3161C115.193 31.3116 115.132 31.2791 115.079 31.2184L114.576 30.645Z" fill="#5A5B5E"/>
<path id="t_2" d="M113.634 41.7031C113.38 41.3292 113.244 40.9778 113.225 40.6488C113.213 40.3153 113.301 40.0066 113.488 39.7227C113.683 39.4343 113.96 39.1675 114.321 38.9223L116.964 37.1245L116.433 36.3434C116.388 36.2767 116.369 36.2063 116.378 36.1323C116.397 36.0605 116.44 36.0019 116.507 35.9565L116.847 35.7249C116.914 35.6795 116.981 35.6632 117.048 35.676C117.127 35.691 117.189 35.7318 117.234 35.7986L117.766 36.5797L119.438 35.4424C119.505 35.397 119.572 35.3807 119.639 35.3935C119.717 35.4085 119.779 35.4493 119.825 35.5161L120.145 35.9867C120.19 36.0535 120.203 36.1228 120.184 36.1946C120.175 36.2686 120.138 36.3283 120.071 36.3737L118.399 37.511L119.243 38.7527C119.289 38.8194 119.302 38.8887 119.282 38.9605C119.274 39.0345 119.236 39.0942 119.17 39.1396L118.829 39.3711C118.762 39.4165 118.69 39.4318 118.611 39.4168C118.544 39.404 118.488 39.3642 118.442 39.2975L117.598 38.0558L115.024 39.806C114.71 40.0193 114.5 40.2407 114.392 40.4701C114.285 40.6995 114.324 40.9511 114.51 41.2248L114.925 41.8356C114.971 41.9024 114.984 41.9717 114.964 42.0435C114.956 42.1175 114.918 42.1772 114.852 42.2226L114.491 42.4677C114.424 42.5131 114.352 42.5284 114.273 42.5134C114.206 42.5006 114.15 42.4608 114.104 42.394L113.634 41.7031Z" fill="#5A5B5E"/>
<path id="o_3" d="M117.083 48.221C116.822 47.6656 116.71 47.1518 116.747 46.6796C116.784 46.2074 116.943 45.7852 117.223 45.4129C117.51 45.0372 117.89 44.7251 118.362 44.4768C118.483 44.4112 118.638 44.3338 118.828 44.2446C119.025 44.1519 119.184 44.0818 119.305 44.0343C119.805 43.8263 120.287 43.7336 120.753 43.7559C121.221 43.7856 121.649 43.937 122.036 44.2103C122.423 44.4835 122.745 44.8942 123.002 45.4423C123.26 45.9904 123.37 46.5006 123.333 46.9728C123.296 47.445 123.137 47.8672 122.857 48.2395C122.581 48.6191 122.203 48.9348 121.723 49.1866C121.61 49.2487 121.454 49.3262 121.257 49.4188C121.067 49.508 120.908 49.5781 120.78 49.6291C120.288 49.8336 119.805 49.9264 119.332 49.9074C118.867 49.8851 118.441 49.7373 118.054 49.464C117.667 49.1908 117.343 48.7765 117.083 48.221ZM117.927 47.8248C118.139 48.2779 118.452 48.5728 118.864 48.7094C119.283 48.8426 119.775 48.7898 120.341 48.551C120.454 48.5068 120.595 48.4453 120.763 48.3664C120.931 48.2875 121.068 48.2187 121.174 48.1599C121.719 47.8773 122.071 47.5338 122.229 47.1296C122.395 46.722 122.371 46.2916 122.158 45.8385C121.946 45.3854 121.628 45.0886 121.205 44.9481C120.793 44.8115 120.306 44.8663 119.744 45.1124C119.631 45.1565 119.49 45.218 119.322 45.2969C119.154 45.3759 119.017 45.4447 118.911 45.5035C118.362 45.7788 118.005 46.1203 117.84 46.5279C117.685 46.9394 117.714 47.3717 117.927 47.8248Z" fill="#5A5B5E"/>
<path id="p_2" d="M118.765 60.2201C118.752 60.1403 118.769 60.0681 118.816 60.0035C118.857 59.948 118.917 59.914 118.996 59.9013L126.938 58.6412C127.018 58.6285 127.085 58.6423 127.141 58.6826C127.205 58.7295 127.244 58.7929 127.257 58.8726L127.344 59.4228C127.357 59.5025 127.339 59.5707 127.291 59.6274C127.252 59.6909 127.192 59.7289 127.113 59.7415L126.586 59.825C126.88 59.9747 127.14 60.195 127.366 60.4861C127.592 60.7772 127.743 61.162 127.819 61.6404C127.889 62.0869 127.874 62.4777 127.772 62.8127C127.671 63.1557 127.505 63.4477 127.273 63.6888C127.043 63.9379 126.768 64.1408 126.45 64.2976C126.132 64.4544 125.782 64.5671 125.4 64.6358C125.274 64.6641 125.139 64.6896 124.995 64.7123C124.852 64.7351 124.716 64.7526 124.587 64.7649C124.211 64.8164 123.843 64.8175 123.484 64.7683C123.132 64.7177 122.809 64.6097 122.513 64.4441C122.226 64.2853 121.978 64.059 121.767 63.7654C121.567 63.4785 121.431 63.1117 121.36 62.6652C121.287 62.2028 121.308 61.7988 121.425 61.4533C121.551 61.1145 121.726 60.8251 121.95 60.5853L119.175 61.0256C119.095 61.0383 119.027 61.0245 118.972 60.9842C118.909 60.9452 118.87 60.8819 118.856 60.7942L118.765 60.2201ZM122.289 62.2603C122.355 62.675 122.494 62.984 122.706 63.1874C122.927 63.3975 123.19 63.5316 123.493 63.5897C123.804 63.6465 124.129 63.6564 124.466 63.6192C124.699 63.5905 124.93 63.5538 125.16 63.5091C125.492 63.44 125.794 63.3309 126.064 63.1817C126.343 63.0312 126.551 62.8224 126.689 62.5554C126.835 62.2951 126.876 61.9576 126.81 61.543C126.748 61.1523 126.606 60.8479 126.383 60.6298C126.162 60.4197 125.898 60.2776 125.592 60.2035C125.295 60.1362 124.998 60.1179 124.7 60.1488C124.572 60.1611 124.419 60.1811 124.244 60.209C124.069 60.2368 123.914 60.2655 123.779 60.2949C123.502 60.3472 123.237 60.4546 122.985 60.6173C122.734 60.7879 122.54 61.0107 122.404 61.2857C122.268 61.5607 122.229 61.8856 122.289 62.2603Z" fill="#5A5B5E"/>
<path id="a_3" d="M121.871 70.4157C121.876 70.0121 121.961 69.6458 122.127 69.3169C122.293 68.988 122.514 68.7243 122.791 68.526C123.068 68.3277 123.38 68.2307 123.727 68.2351C124.284 68.2422 124.725 68.4739 125.051 68.9302C125.376 69.3865 125.586 69.9785 125.682 70.7064L125.913 72.5139L126.264 72.5184C126.652 72.5233 126.956 72.4141 127.177 72.1909C127.398 71.9757 127.511 71.6178 127.518 71.1173C127.522 70.754 127.453 70.4585 127.311 70.2306C127.168 70.0108 126.985 69.855 126.76 69.7634C126.639 69.7134 126.58 69.6278 126.581 69.5068L126.588 68.9618C126.589 68.873 126.615 68.8047 126.664 68.7569C126.721 68.7173 126.785 68.6979 126.858 68.6988C126.979 68.7004 127.128 68.7467 127.304 68.8377C127.481 68.9369 127.652 69.0844 127.82 69.2803C127.987 69.4762 128.125 69.7242 128.234 70.0243C128.351 70.3326 128.407 70.7047 128.401 71.1407C128.395 71.625 128.326 72.0319 128.192 72.3612C128.067 72.6906 127.898 72.9469 127.686 73.1299C127.473 73.3209 127.234 73.4552 126.966 73.5325C126.699 73.6179 126.428 73.6589 126.153 73.6554L122.23 73.6055C122.149 73.6045 122.081 73.5753 122.025 73.5181C121.977 73.469 121.954 73.4042 121.955 73.3234L121.962 72.7664C121.963 72.6776 121.988 72.6093 122.037 72.5615C122.094 72.5138 122.163 72.4904 122.244 72.4914L122.765 72.4981C122.621 72.3913 122.477 72.2482 122.334 72.0687C122.199 71.8894 122.085 71.6659 121.991 71.3982C121.906 71.1307 121.866 70.8032 121.871 70.4157ZM122.776 70.6816C122.771 71.0125 122.836 71.3161 122.97 71.5924C123.112 71.8687 123.331 72.0854 123.628 72.2426C123.924 72.4079 124.299 72.4934 124.751 72.4991L125.09 72.5034L124.902 71.0962C124.828 70.522 124.697 70.0883 124.507 69.7953C124.325 69.5023 124.088 69.3539 123.798 69.3502C123.572 69.3474 123.381 69.4095 123.226 69.5368C123.079 69.6721 122.968 69.8403 122.893 70.0412C122.817 70.2501 122.778 70.4636 122.776 70.6816Z" fill="#5A5B5E"/>
<path id="r_4" d="M121.461 77.4719C121.474 77.3922 121.509 77.3285 121.566 77.2808C121.63 77.2423 121.702 77.2297 121.781 77.243L127.431 78.1849C127.511 78.1982 127.575 78.2334 127.622 78.2905C127.669 78.3555 127.685 78.4278 127.672 78.5075L127.581 79.057C127.567 79.1366 127.528 79.1996 127.463 79.2461C127.398 79.2925 127.326 79.3091 127.246 79.2958L126.721 79.2082C126.965 79.4126 127.131 79.6655 127.22 79.9668C127.309 80.2681 127.321 80.6138 127.256 81.004L127.176 81.4818C127.163 81.5614 127.125 81.6205 127.061 81.659C127.005 81.6988 126.937 81.7121 126.858 81.6988L126.368 81.6171C126.288 81.6039 126.229 81.5694 126.189 81.5136C126.149 81.4579 126.136 81.3902 126.149 81.3105L126.269 80.5938C126.34 80.1638 126.269 79.8041 126.056 79.5148C125.85 79.2267 125.532 79.0469 125.102 78.9752L121.59 78.3897C121.51 78.3764 121.447 78.3372 121.401 78.2722C121.362 78.2085 121.35 78.1368 121.363 78.0572L121.461 77.4719Z" fill="#5A5B5E"/>
<path id="a_4" d="M119.349 85.9504C119.475 85.5669 119.666 85.2431 119.923 84.9791C120.18 84.7151 120.47 84.5301 120.794 84.4242C121.118 84.3182 121.445 84.3194 121.774 84.4278C122.304 84.6018 122.655 84.9553 122.828 85.4882C123.001 86.021 123.024 86.649 122.897 87.372L122.575 89.1656L122.909 89.2753C123.277 89.3963 123.6 89.3835 123.877 89.2369C124.152 89.0979 124.368 88.7906 124.525 88.3151C124.638 87.97 124.661 87.6674 124.594 87.4073C124.524 87.1548 124.395 86.9511 124.208 86.7961C124.108 86.7123 124.077 86.6128 124.115 86.4978L124.285 85.9801C124.313 85.8957 124.358 85.8381 124.419 85.8072C124.485 85.7865 124.553 85.7875 124.622 85.8102C124.737 85.8481 124.865 85.9369 125.006 86.0767C125.144 86.2242 125.264 86.4165 125.364 86.6535C125.465 86.8906 125.522 87.1686 125.536 87.4877C125.555 87.8169 125.497 88.1887 125.361 88.6028C125.209 89.063 125.021 89.4301 124.794 89.7042C124.576 89.9808 124.338 90.1745 124.081 90.2853C123.821 90.4038 123.552 90.4598 123.273 90.4533C122.993 90.4544 122.722 90.4121 122.461 90.3264L118.734 89.1007C118.657 89.0755 118.601 89.0272 118.565 88.9559C118.534 88.8948 118.531 88.8258 118.556 88.7491L118.73 88.22C118.758 88.1356 118.802 88.078 118.863 88.0471C118.932 88.0187 119.005 88.0172 119.082 88.0424L119.576 88.205C119.471 88.0599 119.377 87.8803 119.295 87.6662C119.22 87.4546 119.178 87.2071 119.169 86.9238C119.168 86.643 119.228 86.3185 119.349 85.9504ZM120.132 86.4756C120.029 86.7901 119.999 87.0991 120.044 87.4028C120.096 87.7089 120.241 87.9815 120.476 88.2205C120.71 88.4672 121.041 88.6612 121.471 88.8024L121.793 88.9083L122.036 87.5096C122.138 86.9398 122.143 86.4866 122.05 86.15C121.964 85.8159 121.783 85.6035 121.507 85.5127C121.292 85.4421 121.092 85.4442 120.906 85.519C120.725 85.6039 120.568 85.7309 120.436 85.9C120.302 86.0767 120.2 86.2686 120.132 86.4756Z" fill="#5A5B5E"/>
<path id="v_2" d="M113.168 98.9371C113.235 98.8363 113.312 98.7713 113.4 98.7421C113.483 98.7197 113.572 98.7163 113.669 98.7319L119.587 99.9816C119.63 99.9905 119.668 100.006 119.701 100.029C119.762 100.069 119.799 100.123 119.812 100.19C119.826 100.257 119.812 100.321 119.772 100.381L119.45 100.865C119.401 100.939 119.343 100.983 119.275 100.996C119.208 101.01 119.156 101.008 119.118 100.993L114.119 99.8904L117.07 104.067C117.095 104.103 117.116 104.151 117.134 104.212C117.148 104.279 117.13 104.349 117.081 104.423L116.752 104.917C116.716 104.971 116.664 105.004 116.597 105.018C116.526 105.038 116.46 105.028 116.399 104.988C116.365 104.965 116.336 104.936 116.312 104.9L112.883 99.9113C112.827 99.8352 112.796 99.7512 112.789 99.6594C112.778 99.5743 112.808 99.478 112.88 99.3705L113.168 98.9371Z" fill="#5A5B5E"/>
<path id="o_4" d="M107.51 105.781C107.931 105.335 108.369 105.043 108.822 104.905C109.275 104.767 109.726 104.76 110.175 104.884C110.629 105.015 111.059 105.254 111.462 105.602C111.568 105.691 111.697 105.807 111.849 105.951C112.007 106.101 112.131 106.223 112.219 106.318C112.595 106.707 112.858 107.123 113.008 107.564C113.151 108.011 113.167 108.465 113.054 108.925C112.941 109.385 112.677 109.835 112.261 110.275C111.845 110.714 111.41 111.004 110.957 111.142C110.504 111.28 110.053 111.287 109.604 111.162C109.15 111.044 108.718 110.807 108.308 110.453C108.209 110.37 108.08 110.254 107.921 110.104C107.769 109.96 107.646 109.838 107.551 109.738C107.181 109.354 106.918 108.939 106.763 108.492C106.614 108.05 106.595 107.6 106.708 107.14C106.821 106.68 107.088 106.227 107.51 105.781ZM108.187 106.422C107.843 106.785 107.683 107.184 107.707 107.617C107.736 108.056 107.965 108.495 108.394 108.935C108.477 109.024 108.585 109.132 108.72 109.26C108.855 109.387 108.969 109.49 109.063 109.567C109.525 109.971 109.974 110.173 110.408 110.172C110.847 110.177 111.239 109.998 111.583 109.634C111.927 109.27 112.087 108.866 112.063 108.421C112.04 107.988 111.811 107.554 111.376 107.121C111.294 107.032 111.185 106.924 111.05 106.796C110.915 106.668 110.801 106.566 110.708 106.489C110.251 106.079 109.802 105.871 109.362 105.867C108.923 105.873 108.531 106.058 108.187 106.422Z" fill="#5A5B5E"/>
<path id="c_2" d="M100.683 111.772C101.142 111.428 101.604 111.217 102.071 111.14C102.536 111.074 102.983 111.138 103.41 111.332C103.843 111.532 104.24 111.86 104.602 112.316C104.681 112.408 104.781 112.534 104.902 112.696C105.023 112.857 105.116 112.989 105.183 113.091C105.518 113.566 105.719 114.036 105.785 114.501C105.856 114.972 105.792 115.419 105.593 115.84C105.393 116.273 105.064 116.661 104.605 117.005C104.23 117.285 103.872 117.473 103.529 117.569C103.181 117.669 102.858 117.703 102.563 117.672C102.267 117.642 102.007 117.564 101.783 117.44C101.552 117.32 101.371 117.179 101.238 117.016C101.183 116.956 101.164 116.89 101.18 116.817C101.196 116.744 101.237 116.684 101.301 116.635L101.767 116.287C101.831 116.238 101.889 116.215 101.941 116.217C101.997 116.225 102.068 116.252 102.154 116.299C102.508 116.528 102.833 116.633 103.13 116.612C103.427 116.591 103.724 116.469 104.021 116.246C104.409 115.956 104.636 115.599 104.702 115.176C104.762 114.758 104.603 114.277 104.226 113.732C104.058 113.495 103.888 113.269 103.717 113.054C103.296 112.532 102.876 112.242 102.458 112.182C102.038 112.133 101.635 112.254 101.247 112.545C100.95 112.767 100.75 113.018 100.646 113.298C100.543 113.577 100.551 113.918 100.672 114.322C100.693 114.417 100.697 114.49 100.684 114.54C100.676 114.597 100.64 114.649 100.575 114.697L100.11 115.046C100.046 115.094 99.9763 115.116 99.902 115.111C99.8277 115.107 99.7696 115.069 99.7276 115C99.6324 114.859 99.5574 114.699 99.5026 114.518C99.4477 114.337 99.4228 114.129 99.4277 113.893C99.431 113.669 99.4731 113.435 99.5539 113.193C99.6395 112.957 99.7753 112.714 99.961 112.464C100.145 112.225 100.386 111.994 100.683 111.772Z" fill="#5A5B5E"/>
<path id="&#195;&#170;_2" d="M93.4712 116.198C94.2092 115.814 94.9139 115.735 95.5854 115.96C96.2606 116.191 96.8243 116.69 97.2765 117.456C97.3321 117.545 97.397 117.661 97.4715 117.805C97.5496 117.955 97.6093 118.079 97.6505 118.176C97.886 118.699 97.9984 119.205 97.9878 119.693C97.9809 120.187 97.8523 120.632 97.602 121.026C97.3445 121.423 96.9721 121.748 96.4849 122.001C95.9403 122.284 95.4258 122.406 94.9414 122.366C94.4497 122.33 93.9974 122.151 93.5845 121.829C93.1715 121.507 92.8181 121.063 92.5241 120.497L92.4293 120.314C92.3883 120.235 92.3818 120.161 92.4096 120.092C92.4303 120.027 92.4764 119.975 92.5481 119.938L96.2667 118.007C96.263 118 96.2555 117.986 96.2444 117.964C96.2332 117.943 96.2239 117.925 96.2165 117.911C96.0496 117.624 95.8419 117.382 95.5933 117.184C95.3484 116.992 95.0776 116.874 94.7808 116.828C94.484 116.782 94.1851 116.837 93.8842 116.993C93.6263 117.127 93.4318 117.278 93.3008 117.446C93.1697 117.614 93.0747 117.773 93.0156 117.922C92.9602 118.078 92.9276 118.19 92.9178 118.259C92.9017 118.386 92.8794 118.465 92.851 118.498C92.8264 118.538 92.7746 118.579 92.6958 118.62L92.18 118.888C92.1083 118.925 92.0398 118.933 91.9745 118.913C91.9058 118.903 91.8564 118.86 91.8263 118.785C91.7777 118.674 91.7662 118.511 91.7918 118.298C91.8211 118.092 91.897 117.861 92.0195 117.606C92.142 117.352 92.3205 117.1 92.555 116.851C92.7933 116.609 93.0987 116.391 93.4712 116.198ZM96.6518 118.749L93.707 120.278L93.7237 120.31C93.8911 120.633 94.1009 120.888 94.3529 121.075C94.5978 121.266 94.8684 121.376 95.165 121.404C95.4652 121.439 95.7694 121.377 96.0775 121.217C96.3856 121.057 96.6116 120.844 96.7556 120.578C96.8961 120.323 96.9586 120.041 96.943 119.73C96.9274 119.42 96.8359 119.104 96.6685 118.781L96.6518 118.749ZM98.3093 121.941C98.4167 121.885 98.4928 121.9 98.5375 121.986C98.5672 122.043 98.5632 122.132 98.5253 122.252L98.0499 123.754C98.0192 123.87 97.9806 123.945 97.9342 123.978C97.8843 124.022 97.8307 124.059 97.7734 124.089L97.451 124.256C97.3865 124.289 97.3255 124.312 97.2679 124.324C97.214 124.343 97.1308 124.331 97.0182 124.29L95.516 123.814C95.4034 123.773 95.3322 123.723 95.3025 123.666C95.2578 123.58 95.2857 123.511 95.386 123.459L95.6654 123.314C95.7156 123.288 95.773 123.267 95.8378 123.252C95.9025 123.236 95.9584 123.23 96.0054 123.233L97.2048 123.388L97.768 122.317C97.7998 122.274 97.8407 122.23 97.8905 122.186C97.9332 122.145 97.9797 122.112 98.0298 122.086L98.3093 121.941Z" fill="#5A5B5E"/>
<path id="&#226;&#128;&#162;_2" d="M81.9037 123.046C82.1322 122.995 82.3572 123.002 82.5789 123.068C82.8024 123.142 82.9944 123.26 83.155 123.423C83.3095 123.595 83.4124 123.795 83.4637 124.024C83.5168 124.26 83.5094 124.485 83.4416 124.699C83.3677 124.922 83.2446 125.111 83.0724 125.266C82.9021 125.428 82.7026 125.535 82.4742 125.586C82.2379 125.64 82.0119 125.628 81.7963 125.553C81.5825 125.485 81.3984 125.365 81.2439 125.193C81.0833 125.03 80.9764 124.831 80.9234 124.594C80.8721 124.366 80.8834 124.14 80.9573 123.916C81.0251 123.703 81.1403 123.515 81.3028 123.355C81.4671 123.202 81.6674 123.099 81.9037 123.046Z" fill="#E6AA11"/>
</g>
<circle id="Ellipse 16" cx="70" cy="70" r="41.5333" stroke="#1647C9" stroke-opacity="0.2" stroke-width="0.933333"/>
</g>
</svg>
