<svg width="104" height="104" viewBox="0 0 104 104" fill="none" xmlns="http://www.w3.org/2000/svg">
<path fill-rule="evenodd" clip-rule="evenodd" d="M0 12.5517V25.1034H12.5517H25.1034V12.5517V0H12.5517H0V12.5517ZM32.2759 1.7931V3.58621H30.4828H28.6897V5.37931V7.17241H30.4828H32.2759V5.37931V3.58621H34.069H35.8621V5.37931V7.17241H37.6552H39.4483V8.96552V10.7586H37.6552H35.8621V12.5517V14.3448H34.069H32.2759V12.5517V10.7586H30.4828H28.6897V12.5517V14.3448H30.4828H32.2759V16.1379V17.931H30.4828H28.6897V21.5172V25.1034H30.4828H32.2759V21.5172V17.931H34.069H35.8621V16.1379V14.3448H37.6552H39.4483V12.5517V10.7586H41.2414H43.0345V8.96552V7.17241H44.8276H46.6207V10.7586V14.3448H44.8276H43.0345V16.1379V17.931H41.2414H39.4483V19.7241V21.5172H37.6552H35.8621V23.3103V25.1034H37.6552H39.4483V26.8966V28.6897H37.6552H35.8621V30.4828V32.2759H34.069H32.2759V30.4828V28.6897H26.8966H21.5172V30.4828V32.2759H19.7241H17.931V30.4828V28.6897H8.96552H0V32.2759V35.8621H3.58621H7.17241V34.069V32.2759H12.5517H17.931V35.8621V39.4483H23.3103H28.6897V41.2414V43.0345H30.4828H32.2759V44.8276V46.6207H28.6897H25.1034V44.8276V43.0345H21.5172H17.931V44.8276V46.6207H16.1379H14.3448V44.8276V43.0345H8.96552H3.58621V41.2414V39.4483H1.7931H0V41.2414V43.0345H1.7931H3.58621V46.6207V50.2069H1.7931H0V53.7931V57.3793H3.58621H7.17241V52V46.6207H8.96552H10.7586V50.2069V53.7931H14.3448H17.931V52V50.2069H19.7241H21.5172V52V53.7931H25.1034H28.6897V55.5862V57.3793H25.1034H21.5172V59.1724V60.9655H23.3103H25.1034V62.7586V64.5517H16.1379H7.17241V62.7586V60.9655H3.58621H0V68.1379V75.3103H1.7931H3.58621V69.931V64.5517H5.37931H7.17241V66.3448V68.1379H10.7586H14.3448V71.7241V75.3103H19.7241H25.1034V73.5172V71.7241H21.5172H17.931V69.931V68.1379H21.5172H25.1034V66.3448V64.5517H26.8966H28.6897V73.5172V82.4828H30.4828H32.2759V73.5172V64.5517H34.069H35.8621V66.3448V68.1379H37.6552H39.4483V69.931V71.7241H37.6552H35.8621V73.5172V75.3103H37.6552H39.4483V73.5172V71.7241H41.2414H43.0345V69.931V68.1379H46.6207H50.2069V73.5172V78.8966H46.6207H43.0345V80.6897V82.4828H41.2414H39.4483V80.6897V78.8966H37.6552H35.8621V82.4828V86.069H32.2759H28.6897V95.0345V104H32.2759H35.8621V102.207V100.414H39.4483H43.0345V98.6207V96.8276H41.2414H39.4483V95.0345V93.2414H43.0345H46.6207V96.8276V100.414H48.4138H50.2069V102.207V104H55.5862H60.9655V102.207V100.414H62.7586H64.5517V102.207V104H68.1379H71.7241V98.6207V93.2414H73.5172H75.3103V95.0345V96.8276H77.1034H78.8966V95.0345V93.2414H80.6897H82.4828V95.0345V96.8276H84.2759H86.069V93.2414V89.6552H87.8621H89.6552V86.069V82.4828H91.4483H93.2414V86.069V89.6552H98.6207H104V86.069V82.4828H100.414H96.8276V80.6897V78.8966H98.6207H100.414V75.3103V71.7241H102.207H104V69.931V68.1379H102.207H100.414V66.3448V64.5517H102.207H104V62.7586V60.9655H102.207H100.414V62.7586V64.5517H96.8276H93.2414V62.7586V60.9655H91.4483H89.6552V57.3793V53.7931H93.2414H96.8276V55.5862V57.3793H100.414H104V53.7931V50.2069H102.207H100.414V48.4138V46.6207H98.6207H96.8276V48.4138V50.2069H95.0345H93.2414V48.4138V46.6207H91.4483H89.6552V44.8276V43.0345H91.4483H93.2414V41.2414V39.4483H95.0345H96.8276V37.6552V35.8621H98.6207H100.414V32.2759V28.6897H98.6207H96.8276V32.2759V35.8621H95.0345H93.2414V32.2759V28.6897H91.4483H89.6552V30.4828V32.2759H87.8621H86.069V30.4828V28.6897H84.2759H82.4828V30.4828V32.2759H80.6897H78.8966V30.4828V28.6897H77.1034H75.3103V17.931V7.17241H71.7241H68.1379V5.37931V3.58621H64.5517H60.9655V1.7931V0H59.1724H57.3793V1.7931V3.58621H59.1724H60.9655V5.37931V7.17241H59.1724H57.3793V8.96552V10.7586H53.7931H50.2069V7.17241V3.58621H52H53.7931V1.7931V0H52H50.2069V1.7931V3.58621H46.6207H43.0345V1.7931V0H37.6552H32.2759V1.7931ZM71.7241 1.7931V3.58621H73.5172H75.3103V1.7931V0H73.5172H71.7241V1.7931ZM78.8966 12.5517V25.1034H91.4483H104V12.5517V0H91.4483H78.8966V12.5517ZM21.5172 12.5517V21.5172H12.5517H3.58621V12.5517V3.58621H12.5517H21.5172V12.5517ZM43.0345 5.37931V7.17241H41.2414H39.4483V5.37931V3.58621H41.2414H43.0345V5.37931ZM100.414 12.5517V21.5172H91.4483H82.4828V12.5517V3.58621H91.4483H100.414V12.5517ZM7.17241 12.5517V17.931H12.5517H17.931V12.5517V7.17241H12.5517H7.17241V12.5517ZM86.069 12.5517V17.931H91.4483H96.8276V12.5517V7.17241H91.4483H86.069V12.5517ZM71.7241 17.931V25.1034H69.931H68.1379V23.3103V21.5172H66.3448H64.5517V25.1034V28.6897H68.1379H71.7241V30.4828V32.2759H73.5172H75.3103V34.069V35.8621H78.8966H82.4828V34.069V32.2759H84.2759H86.069V34.069V35.8621H87.8621H89.6552V37.6552V39.4483H82.4828H75.3103V37.6552V35.8621H73.5172H71.7241V37.6552V39.4483H68.1379H64.5517V41.2414V43.0345H68.1379H71.7241V44.8276V46.6207H73.5172H75.3103V44.8276V43.0345H77.1034H78.8966V44.8276V46.6207H82.4828H86.069V48.4138V50.2069H87.8621H89.6552V52V53.7931H80.6897H71.7241V52V50.2069H69.931H68.1379V53.7931V57.3793H73.5172H78.8966V60.9655V64.5517H80.6897H82.4828V60.9655V57.3793H84.2759H86.069V60.9655V64.5517H87.8621H89.6552V66.3448V68.1379H95.0345H100.414V69.931V71.7241H95.0345H89.6552V69.931V68.1379H87.8621H86.069V66.3448V64.5517H84.2759H82.4828V66.3448V68.1379H78.8966H75.3103V66.3448V64.5517H73.5172H71.7241V66.3448V68.1379H69.931H68.1379V66.3448V64.5517H69.931H71.7241V62.7586V60.9655H68.1379H64.5517V62.7586V64.5517H62.7586H60.9655V62.7586V60.9655H62.7586H64.5517V59.1724V57.3793H62.7586H60.9655V55.5862V53.7931H59.1724H57.3793V55.5862V57.3793H53.7931H50.2069V60.9655V64.5517H46.6207H43.0345V66.3448V68.1379H41.2414H39.4483V66.3448V64.5517H37.6552H35.8621V62.7586V60.9655H34.069H32.2759V62.7586V64.5517H30.4828H28.6897V62.7586V60.9655H30.4828H32.2759V53.7931V46.6207H34.069H35.8621V41.2414V35.8621H41.2414H46.6207V34.069V32.2759H43.0345H39.4483V30.4828V28.6897H41.2414H43.0345V26.8966V25.1034H41.2414H39.4483V23.3103V21.5172H41.2414H43.0345V23.3103V25.1034H44.8276H46.6207V23.3103V21.5172H48.4138H50.2069V25.1034V28.6897H52H53.7931V23.3103V17.931H55.5862H57.3793V16.1379V14.3448H59.1724H60.9655V12.5517V10.7586H66.3448H71.7241V17.931ZM50.2069 16.1379V17.931H48.4138H46.6207V16.1379V14.3448H48.4138H50.2069V16.1379ZM60.9655 19.7241V21.5172H59.1724H57.3793V25.1034V28.6897H55.5862H53.7931V30.4828V32.2759H52H50.2069V30.4828V28.6897H48.4138H46.6207V30.4828V32.2759H48.4138H50.2069V34.069V35.8621H48.4138H46.6207V37.6552V39.4483H48.4138H50.2069V44.8276V50.2069H46.6207H43.0345V52V53.7931H41.2414H39.4483V52V50.2069H37.6552H35.8621V52V53.7931H37.6552H39.4483V55.5862V57.3793H41.2414H43.0345V59.1724V60.9655H44.8276H46.6207V59.1724V57.3793H48.4138H50.2069V55.5862V53.7931H53.7931H57.3793V52V50.2069H55.5862H53.7931V48.4138V46.6207H55.5862H57.3793V44.8276V43.0345H55.5862H53.7931V37.6552V32.2759H55.5862H57.3793V34.069V35.8621H59.1724H60.9655V37.6552V39.4483H62.7586H64.5517V37.6552V35.8621H66.3448H68.1379V34.069V32.2759H66.3448H64.5517V34.069V35.8621H62.7586H60.9655V34.069V32.2759H59.1724H57.3793V30.4828V28.6897H59.1724H60.9655V25.1034V21.5172H62.7586H64.5517V19.7241V17.931H62.7586H60.9655V19.7241ZM32.2759 34.069V35.8621H26.8966H21.5172V34.069V32.2759H26.8966H32.2759V34.069ZM10.7586 37.6552V39.4483H12.5517H14.3448V37.6552V35.8621H12.5517H10.7586V37.6552ZM39.4483 41.2414V43.0345H41.2414H43.0345V41.2414V39.4483H41.2414H39.4483V41.2414ZM100.414 41.2414V43.0345H102.207H104V41.2414V39.4483H102.207H100.414V41.2414ZM25.1034 48.4138V50.2069H23.3103H21.5172V48.4138V46.6207H23.3103H25.1034V48.4138ZM75.3103 48.4138V50.2069H77.1034H78.8966V48.4138V46.6207H77.1034H75.3103V48.4138ZM60.9655 52V53.7931H62.7586H64.5517V52V50.2069H62.7586H60.9655V52ZM46.6207 55.5862V57.3793H44.8276H43.0345V55.5862V53.7931H44.8276H46.6207V55.5862ZM14.3448 59.1724V60.9655H16.1379H17.931V59.1724V57.3793H16.1379H14.3448V59.1724ZM57.3793 69.931V71.7241H59.1724H60.9655V73.5172V75.3103H62.7586H64.5517V73.5172V71.7241H68.1379H71.7241V75.3103V78.8966H69.931H68.1379V80.6897V82.4828H66.3448H64.5517V84.2759V86.069H66.3448H68.1379V87.8621V89.6552H69.931H71.7241V91.4483V93.2414H69.931H68.1379V95.0345V96.8276H66.3448H64.5517V95.0345V93.2414H62.7586H60.9655V91.4483V89.6552H59.1724H57.3793V87.8621V86.069H55.5862H53.7931V91.4483V96.8276H55.5862H57.3793V98.6207V100.414H53.7931H50.2069V96.8276V93.2414H48.4138H46.6207V89.6552V86.069H44.8276H43.0345V87.8621V89.6552H41.2414H39.4483V91.4483V93.2414H35.8621H32.2759V91.4483V89.6552H35.8621H39.4483V87.8621V86.069H41.2414H43.0345V84.2759V82.4828H46.6207H50.2069V84.2759V86.069H52H53.7931V82.4828V78.8966H55.5862H57.3793V75.3103V71.7241H55.5862H53.7931V69.931V68.1379H55.5862H57.3793V69.931ZM64.5517 77.1034V78.8966H62.7586H60.9655V80.6897V82.4828H59.1724H57.3793V84.2759V86.069H59.1724H60.9655V87.8621V89.6552H62.7586H64.5517V87.8621V86.069H62.7586H60.9655V84.2759V82.4828H62.7586H64.5517V80.6897V78.8966H66.3448H68.1379V77.1034V75.3103H66.3448H64.5517V77.1034ZM86.069 80.6897V86.069H80.6897H75.3103V80.6897V75.3103H80.6897H86.069V80.6897ZM96.8276 77.1034V78.8966H93.2414H89.6552V77.1034V75.3103H93.2414H96.8276V77.1034ZM0 91.4483V104H12.5517H25.1034V91.4483V78.8966H12.5517H0V91.4483ZM78.8966 80.6897V82.4828H80.6897H82.4828V80.6897V78.8966H80.6897H78.8966V80.6897ZM21.5172 91.4483V100.414H12.5517H3.58621V91.4483V82.4828H12.5517H21.5172V91.4483ZM7.17241 91.4483V96.8276H12.5517H17.931V91.4483V86.069H12.5517H7.17241V91.4483ZM93.2414 95.0345V96.8276H91.4483H89.6552V98.6207V100.414H87.8621H86.069V102.207V104H91.4483H96.8276V100.414V96.8276H98.6207H100.414V98.6207V100.414H102.207H104V98.6207V96.8276H102.207H100.414V95.0345V93.2414H96.8276H93.2414V95.0345ZM35.8621 98.6207V100.414H34.069H32.2759V98.6207V96.8276H34.069H35.8621V98.6207ZM75.3103 102.207V104H78.8966H82.4828V102.207V100.414H78.8966H75.3103V102.207Z" fill="white"/>
</svg>
